<?xml version="1.0" encoding="UTF-8"?>
<svg id="Layer_1" data-name="Layer 1" xmlns="http://www.w3.org/2000/svg" viewBox="0 0 256.91 149.64">
  <defs>
    <style>
      .cls-1 {
        fill: #fff;
      }
    </style>
  </defs>
  <path class="cls-1"
    d="m238.33,43.79c-14.87-24.03-36.08-35.61-63.93-32.62-25.38,2.73-43.02,17.11-52.4,40.54-3.47,8.66-3.92,18.53-5.85,28.35h-62.35v-10.54h53.22c1.96-24.05,13.15-42.58,32.27-56.29C156.19,1.12,175.22-2.02,195.46,1.16c32.48,5.11,67.6,38,60.53,85.93-5.46,37.01-40.92,64.7-73.93,62.35v-9.97c26.77-.88,46.52-13.38,58.08-37.19,9.36-19.27,8.31-39.04-1.8-58.5Z" />
  <path class="cls-1" d="m0,139.92c0-23.6,0-46.71,0-70.07h10.45v69.16h106.78v10.64H0c0-3.08,0-6.16,0-9.73Z" />
  <path class="cls-1" d="m51.74,10.77h-19.44V.33h85.15v10.44H51.74Z" />
</svg>