<svg xmlns="http://www.w3.org/2000/svg" viewBox="0 0 97 86">
    <g fill="none" fill-rule="evenodd" transform="translate(3 3)">
        <path fill="#C39779" fill-rule="nonzero"
            d="M35.175 40a1.8 1.8 0 0 1-.425.8 2.1 2.1 0 0 1-1.375.6 4.675 4.675 0 0 1-3.425-1.525c-.925-.9-1.7-1.95-2.7-2.775-3.375-2.725-8.6-1.975-12.075-4.575a10.8 10.8 0 0 1-3.5-5.2 13.325 13.325 0 0 1-.55-7.5c.475-1.95 1.975-5.3 4.55-4.175.87.46 1.603 1.14 2.125 1.975a28.45 28.45 0 0 1 4.125 8.175 4.1 4.1 0 0 0 .65 1.45c.321.342.703.621 1.125.825l8.975 5c.332.158.636.369.9.625a3.1 3.1 0 0 1 .55.975c.433 1.11.768 2.256 1 3.425a4.35 4.35 0 0 1 .05 1.9z" />
        <path fill="#F9D6C1" fill-rule="nonzero"
            d="M15.3 13.7s2.25-3.2 5.2 4.7a7.35 7.35 0 0 0 10 4.6s1.8.275 0 2.325C28.7 27.375 15.05 33.7 15.3 13.7zM2.3 42.075c.09-.1.2-.177.325-.225.925-.375 2.1.75 2.5 1.425a23.75 23.75 0 0 1 1.225 3.3c1.15 2.775 4.025 4.75 4.525 7.7.4 2.35-.825 4.75-.35 7.1a5.9 5.9 0 0 0 4.7 4.375 8.3 8.3 0 0 0 6.4-1.725c.862-.81 1.829-1.5 2.875-2.05 2.75-1.1 3.85 1.55 2.5 3.65a15.85 15.85 0 0 1-5 5.325 10.95 10.95 0 0 1-8.175 1.8 13.025 13.025 0 0 1-6.3-4.075 7.85 7.85 0 0 1-1.625-2.25 16.7 16.7 0 0 1-.125-6.55 24.325 24.325 0 0 0-2.5-8.85A16.25 16.25 0 0 1 1.8 44.5c-.067-.84.106-1.68.5-2.425zM29.475 5.75A1.925 1.925 0 0 0 31.1 8.575C33.75 9 34 4.4 35.575 4.3c1.575-.1 4.2-1.975 1.5-2.5-2.7-.525-7.475 2.45-7.6 3.95zM43.725 47.5s-4.275-3.225-3.75 4.675a50.85 50.85 0 0 1-.25 13.725 9.375 9.375 0 0 1-2.5 5 5 5 0 0 1-6.025-.2c-1.925-1.1-3.7-1.55-4.725.9-1.925 4.7 0 7.75 7.15 7.075a12.725 12.725 0 0 0 10-6.55l.1-24.625z" />
        <path fill="#F9D6C1" fill-rule="nonzero"
            d="M59.35 80.775a12.5 12.5 0 0 1-5.725-.725 10 10 0 0 1-6.05-7.5l-4-20.575S47.7 47.4 48.325 57.8c.185 3.493.92 6.935 2.175 10.2a11.35 11.35 0 0 0 3.85 5.825c.213.132.44.24.675.325a3.125 3.125 0 0 0 3.55-4.475C55.075 62.5 59.9 60.15 59.9 60.15l3.3 10.95a2.675 2.675 0 0 1 1.825 1.375c2.775 4.225 1.475 7.575-5.675 8.3zM52.325 23.625a2 2 0 0 1-.475-.475c-.225-.325-.325-.725-.55-1.05-1.275-1.9-2.5 2.175-2.5 3.025a8.4 8.4 0 0 0 2.5 5.85c1.3 1.45.925 2.15.975 4.1 0 1.125.6 2.5 1.725 2.5a2 2 0 0 0 1.725-.75c.412-.515.71-1.111.875-1.75a29.4 29.4 0 0 0 .775-9.2.625.625 0 0 0-.575-.725l-2.9-.875a5 5 0 0 1-1.575-.65z" />
        <path fill="#C39779" fill-rule="nonzero"
            d="M61.25 52.4s-6.875 4.6-3.6 14.8c3.275 10.2 8.725 4.475 8.725 4.475A23.125 23.125 0 0 1 61.25 52.4z" />
        <path stroke="#D6AD60" stroke-linecap="round" stroke-linejoin="round" stroke-width="5"
            d="M14.4 21.2a13 13 0 0 1-.95-4.85c0-7.028 5.697-12.725 12.725-12.725.84.007 1.678.1 2.5.275A9.3 9.3 0 0 1 45.5 9.475v59.8A10.8 10.8 0 0 1 24.075 71.2a12.5 12.5 0 0 0 6.3-10.85v-.925A12.5 12.5 0 0 0 20.5 48.15" />
        <path stroke="#D6AD60" stroke-linecap="round" stroke-linejoin="round" stroke-width="5"
            d="M14.4 21.2a12.725 12.725 0 0 0 9.575 7.7c.726.132 1.462.2 2.2.2a12.725 12.725 0 0 0 12.5-10.675M26.45 29.075a9.3 9.3 0 0 1 9.3 9.3M20.5 48.15a12.5 12.5 0 0 1 9.725 11.25v.95A12.5 12.5 0 0 1 5.65 63c-.44-1.9-.44-3.875 0-5.775a3.65 3.65 0 0 0-1.3-3.825 10.4 10.4 0 0 1-4.225-8.375 10 10 0 0 1 1.9-5.825 11.875 11.875 0 0 1 2.15-2.25c.415-.333.85-.642 1.3-.925.375-.25 1.35-.4 1.2-1A18.25 18.25 0 0 1 5.55 29.6a8.45 8.45 0 0 1 1.55-4.1M20.5 48.15V48M52.1 79.225A10.8 10.8 0 0 0 66.925 71.2a12.5 12.5 0 0 1-6.3-10.85v-.925A12.5 12.5 0 0 1 70.5 48.15M76.6 21.2a13 13 0 0 0 .95-4.85c0-7.028-5.697-12.725-12.725-12.725a12.5 12.5 0 0 0-2.5.275 9.275 9.275 0 0 0-10-3.375M76.6 21.2a12.725 12.725 0 0 1-9.575 7.7A12.725 12.725 0 0 1 53 21.2M64.55 29.075a9.3 9.3 0 0 0-9.3 9.3" />
        <path stroke="#D6AD60" stroke-linecap="round" stroke-linejoin="round" stroke-width="5"
            d="M70.5 48.15a12.5 12.5 0 0 0-9.725 11.25v.95A12.5 12.5 0 0 0 85.35 63c.44-1.9.44-3.875 0-5.775a3.65 3.65 0 0 1 1.3-3.825 10.4 10.4 0 0 0 4.225-8.375 10 10 0 0 0-1.9-5.825 11.875 11.875 0 0 0-2.15-2.25c-.415-.333-.85-.642-1.3-.925-.375-.25-1.35-.4-1.2-1A18.25 18.25 0 0 0 85.45 29.6a9.3 9.3 0 0 0-8.25-8.375h-.45M70.5 48.15V48" />
        <circle cx="77.55" cy="46.85" r="2.5" fill="#C39779" fill-rule="nonzero" />
    </g>
</svg>