<svg xmlns="http://www.w3.org/2000/svg" viewBox="0 0 76 104">
    <g fill="none" fill-rule="evenodd" transform="translate(0 2)">
        <path fill="#F9D6C1" fill-rule="nonzero"
            d="M58 87.5s-25.175-.85-31.325 1.05c-6.15 1.9 33.375 1.9 33.375 1.9L58 87.5zM16.3 87.5c-4.9-.456-9.84-.101-14.625 1.05-6.95 1.9 16.925 1.9 16.925 1.9l-2.3-2.95zM35.85 17.075c.575 0 1.5 1.825 1.675 2.225 1.15 2.5-.525 6 1.225 7.95a4.775 4.775 0 0 0 3.775 1.2s-5.35 6.575-7.925 3.25-6.25-14.575 1.25-14.625z" />
        <path stroke="#D6AD60" stroke-linecap="round" stroke-linejoin="round" stroke-width="5"
            d="M60.1 88.125l-19.05-57.6M38.025 15.1V.6M35.025 30.5L15.95 88.125M35.025 30.5A8 8 0 0 1 38 15a8 8 0 0 1 2.95 15.425M71.325 99.05c-3.6.25-7.375.375-11.25.375-24.35 0-44.1-5-44.1-11.325 0-6.325 19.75-11.325 44.1-11.325H64.6" />
        <circle cx="73.1" cy="78.1" r="2.5" fill="#C39779" fill-rule="nonzero" />
    </g>
</svg>