<?xml version="1.0" encoding="UTF-8"?>
<svg id="Layer_1" data-name="Layer 1" xmlns="http://www.w3.org/2000/svg" xmlns:xlink="http://www.w3.org/1999/xlink" viewBox="0 0 554.62 537.23">
  <defs>
    <style>
      .cls-1 {
        fill: none;
        stroke: #c3773c;
        stroke-miterlimit: 10;
      }

      .cls-2 {
        fill: url(#linear-gradient-2);
      }

      .cls-2, .cls-3 {
        fill-rule: evenodd;
      }

      .cls-3 {
        fill: url(#linear-gradient);
      }
    </style>
    <linearGradient id="linear-gradient" x1="117.86" y1="275.05" x2="437.75" y2="275.05" gradientUnits="userSpaceOnUse">
      <stop offset="0" stop-color="#f1f8fd"/>
      <stop offset=".88" stop-color="#c88754"/>
      <stop offset="1" stop-color="#c3773c"/>
    </linearGradient>
    <linearGradient id="linear-gradient-2" x1="121.49" y1="396.01" x2="498.2" y2="97.46" gradientUnits="userSpaceOnUse">
      <stop offset="0" stop-color="#f1f8fd"/>
      <stop offset=".88" stop-color="#c88754"/>
      <stop offset="1" stop-color="#c3773c"/>
    </linearGradient>
  </defs>
  <path class="cls-3" d="m359.62,133.11h0l-.04-.02.04.02Zm76.75,118.86c-6.53-50.56-35.69-93.84-76.75-118.86l.77.24-.81-.26c-6.96-4.24-14.27-7.96-21.86-11.09-6.75-2.79-13.74-5.12-20.91-6.96-10.09,2.12-17.69,11.26-17.69,22.2,0,7.68,3.74,14.46,9.46,18.56,4.19,1.14,8.3,2.51,12.3,4.09,38.24,15.14,66.95,49.84,74.33,92.08h-109.91s-.23,0-.23,0c-10.69,0-19.35,9.82-19.35,21.93s8.67,21.93,19.35,21.93h151.2c.98-7.29,1.48-14.74,1.48-22.3s-.47-14.5-1.38-21.55Zm-70.56,155.63c-36.83,25.13-83.67,34.55-129.81,21.92-84.99-23.27-135.45-112.55-112.67-199.38,12.86-49.04,46.34-86.83,88.36-106.23,7.85-3.63,16-6.62,24.38-8.91.08.02.16.04.24.06,12.32,3.37,19.63,16.31,16.33,28.89-1.27,4.85-3.94,8.94-7.43,11.94-5.19,1.5-10.26,3.35-15.18,5.55-31.88,14.2-57.36,42.57-67.06,79.55-16.91,64.48,20.56,130.78,83.67,148.05,33.25,9.1,67,2.78,93.97-14.66,5.97-3.87,11.61-8.28,16.84-13.19,3.24-.6,6.65-.49,10.03.44,12.32,3.37,19.63,16.31,16.33,28.89-.39,1.47-.9,2.88-1.53,4.2-5.21,4.66-10.71,8.96-16.45,12.88Z"/>
  <path class="cls-2" d="m463.69,361.16c6.26-4.84,14.89-6.88,23.37-4.78,12.83,3.19,20.83,14.75,18.97,26.63-3.23,5.47-6.67,10.78-10.31,15.95-58.87,83.35-170.87,126.3-280.39,99.12C78.86,464.2-2.17,334.23,34.4,207.82,56.01,133.14,113.84,76.38,185.68,49.42c5.36-2.01,10.81-3.86,16.32-5.53,2.29-.02,4.63.25,6.96.82,13.84,3.44,22.06,16.62,18.35,29.44-1.35,4.67-4.09,8.64-7.7,11.65-6.17,1.8-12.23,3.85-18.17,6.16-57.12,22.21-102.95,67.78-120.22,127.48-29.64,102.47,36.03,207.84,146.66,235.29,88.64,22,179.29-12.68,227.07-80.04,3.1-4.37,6.02-8.89,8.75-13.53"/>
  <ellipse class="cls-1" cx="277.31" cy="268.62" rx="276.81" ry="268.12"/>
</svg>