<?xml version="1.0" encoding="UTF-8"?>
<svg id="Layer_1" data-name="Layer 1" xmlns="http://www.w3.org/2000/svg" viewBox="0 0 521.74 514.49">
  <defs>
    <style>
      .cls-1 {
        fill: #fff;
        fill-rule: evenodd;
      }
    </style>
  </defs>
  <path class="cls-1"
    d="m371.96,97.3h0l-.05-.03.05.03Zm92.04,130.59c-7.83-55.55-42.8-103.1-92.04-130.59l.92.26-.97-.29c-8.35-4.66-17.11-8.74-26.22-12.19-8.1-3.07-16.48-5.63-25.08-7.65-12.11,2.33-21.21,12.37-21.21,24.39,0,8.44,4.48,15.89,11.34,20.4,5.03,1.25,9.95,2.76,14.75,4.5,45.86,16.63,80.29,54.76,89.15,101.17h-131.82s-.28,0-.28,0c-12.82,0-23.21,10.79-23.21,24.09s10.39,24.09,23.21,24.09h181.34c1.17-8.01,1.77-16.19,1.77-24.51s-.57-15.93-1.65-23.68Zm-84.62,170.99c-44.17,27.62-100.35,37.96-155.68,24.08-101.93-25.56-162.45-123.66-135.13-219.06,15.43-53.88,55.58-95.4,105.97-116.72,9.42-3.99,19.19-7.27,29.23-9.79.1.02.19.05.28.07,14.77,3.7,23.54,17.92,19.59,31.75-1.52,5.33-4.72,9.82-8.92,13.12-6.22,1.65-12.31,3.68-18.21,6.1-38.23,15.61-68.8,46.77-80.43,87.4-20.28,70.85,24.65,143.69,100.35,162.67,39.88,10,80.36,3.06,112.7-16.11,7.16-4.25,13.93-9.1,20.2-14.49,3.88-.65,7.97-.54,12.03.48,14.77,3.7,23.54,17.92,19.59,31.75-.46,1.62-1.08,3.16-1.83,4.61-6.25,5.12-12.85,9.85-19.73,14.15Z" />
  <path class="cls-1"
    d="m475.49,353.07c6.8-5.39,16.16-7.66,25.36-5.32,13.93,3.55,22.61,16.42,20.59,29.64-3.5,6.08-7.24,12-11.19,17.74-63.9,92.75-185.47,140.56-304.34,110.31C57.78,467.75-30.17,323.1,9.53,182.43,32.98,99.32,95.75,36.15,173.73,6.16,179.56,3.92,185.46,1.86,191.45,0c2.49-.02,5.02.27,7.55.92,15.02,3.82,23.94,18.49,19.91,32.76-1.46,5.19-4.44,9.62-8.36,12.96-6.7,2-13.28,4.29-19.73,6.86-62.01,24.71-111.75,75.42-130.49,141.86-32.17,114.04,39.11,231.29,159.19,261.84,96.22,24.48,194.61-14.11,246.47-89.07,3.37-4.87,6.54-9.89,9.5-15.06" />
</svg>