<svg xmlns="http://www.w3.org/2000/svg" viewBox="0 0 89 112">
    <g fill="none" fill-rule="evenodd" transform="translate(2 3)">
        <path fill="#FCE8DB" fill-rule="nonzero"
            d="M33.85 33a15.95 15.95 0 0 1 4.6-.95 4.375 4.375 0 0 1 4.275 1.925 5.425 5.425 0 0 1-.225 3.8 139.35 139.35 0 0 0-4.075 19.55 58.625 58.625 0 0 0-.45 15 15 15 0 0 0 1.4 5 6.85 6.85 0 0 0 3.85 3.475c3.5 1.1 7.075-1.325 9.525-3.575a156.83 156.83 0 0 0 7.15-6.975 33.15 33.15 0 0 1 9.35-7.95 7.325 7.325 0 0 1 9.3 10.7c-3.875 6.875-11.175 24.1-38.575 21.625-27.4-2.475-38.575-22.5-39.05-35.6-.225-6.175 6.175-11.2 10.7-14.35A105.275 105.275 0 0 1 31.375 34c.8-.325 1.65-.65 2.475-1z" />
        <path fill="#FCE8DB" fill-rule="nonzero"
            d="M32.2 1.325s9.425.15 8.075 6.675C38.925 14.525 30 13 31.25 33c.725 11.05.7 10.2.5 7.225a3.975 3.975 0 0 0-5.85-3.275l-5.4 2.9a3.975 3.975 0 0 1-5.875-3.5V19.225A3.975 3.975 0 0 1 17.5 15.5l6.475-2.1a3.975 3.975 0 0 0 2.7-3.125c.5-3.575 2.05-9.775 5.525-8.95z" />
        <path fill="#C39779" fill-rule="nonzero"
            d="M12.3 46.75s5.55-2.3 5.275 13.95C17.3 76.95 30.425 86.125 33.75 86.125c3.325 0 9.1 1.875 8.1 5.825s-35.8.625-39.125-29.8C2.7 62.175-1.25 50.5 12.3 46.75z" />
        <path stroke="#D6AD60" stroke-linecap="round" stroke-linejoin="round" stroke-width="5"
            d="M28.05 14.5v-10A4.175 4.175 0 0 1 32.2.35h20.6a4.175 4.175 0 0 1 4.15 4.15v10H38.925M14.625 33.25V20.275A5.8 5.8 0 0 1 20.4 14.5h7.65M56.95 14.5h7.65a5.8 5.8 0 0 1 5.775 5.775v23.85l-13.4-7.775-8.5-5a11.825 11.825 0 0 0-11.875 0l-8.5 5-13.4 7.775M8.775 102.8a10 10 0 0 0 13.525.45M22.3 103.25a10 10 0 0 0 13 0M48.3 103.25a10 10 0 0 1-13 0M61.325 103.25a10 10 0 0 1-13 0" />
        <path stroke="#D6AD60" stroke-linecap="round" stroke-linejoin="round" stroke-width="5"
            d="M61.325 103.25a10 10 0 0 0 6.5 2.5 15.875 15.875 0 0 0 11.75-6.825 3.3 3.3 0 0 0 .675-2.725 19.3 19.3 0 0 1-5.875 1.575c-4.6 0-10.975-3.175-12-8.025 0 0-4.5 2.175-5.4 2.5a43.65 43.65 0 0 1-14.45 2.5c-19.974.01-37.229-13.961-41.375-33.5a11.9 11.9 0 0 1 5.7-12.5l7.8-4.5 13.4-7.775 8.5-5a11.825 11.825 0 0 1 11.875 0l8.5 5 13.4 7.775 7.8 4.5a11.825 11.825 0 0 1 5.7 12.5 42.2 42.2 0 0 1-9.175 18.6" />
        <circle cx="70.075" cy="85.6" r="2.5" fill="#C39779" fill-rule="nonzero" />
    </g>
</svg>