<svg xmlns="http://www.w3.org/2000/svg" viewBox="0 0 102 102">
    <defs>
        <linearGradient id="a" x1="50%" x2="50%" y1="0%" y2="100%">
            <stop offset="0%" stop-color="#FDEDE2" />
            <stop offset="100%" stop-color="#F9D6C1" />
        </linearGradient>
    </defs>
    <g fill="none" fill-rule="evenodd" transform="translate(3 3)">
        <path fill="url(#a)" fill-rule="nonzero"
            d="M32.074 10.981c-2.186 16.208-4.347 57.116 25.781 73.802a4.448 4.448 0 0 1-1.683 8.191c-19.073 2.513-50.634 0-55.534-42.39a4.8 4.8 0 0 1 0-.529c0-3.116.277-33.822 25.305-43.748a4.448 4.448 0 0 1 6.13 4.674z" />
        <path fill="#C39779" fill-rule="nonzero"
            d="M44.035 55.282l2.513 11.182a8.041 8.041 0 0 0-.553 1.81c-.251 1.155-.478 2.311-.729 3.467-.327 1.709-.98 3.744-2.663 4.196-1.684.453-3.317-1.105-3.895-2.789-.578-1.683-.503-3.493-.905-5.302-.402-1.81-1.91-3.342-3.644-3.166-.854 0-1.557.678-2.512.804-1.96.402-.78-4.498-1.156-5.352a4.196 4.196 0 0 0-2.714-2.06c-2.287-.68-9.674-.93-7.69-5.202a4.222 4.222 0 0 1 2.69-1.91 24.776 24.776 0 0 1 3.517-.804 10.051 10.051 0 0 0 3.167-.804l11.156 2.513 2.69.578.728 2.84zM44.035 38.446l-.603 2.689-2.714.628-4.372.955a4.598 4.598 0 0 0 1.306-2.01c.287-.984.472-1.994.553-3.016 0-.653.176-1.256.302-1.86.054-.251.138-.496.25-.728l5.278 3.342zM54.84 41.135v-.503l1.734-1.08a6.684 6.684 0 0 1-.955 1.759l-.779-.176zM60.82 57.267c-.815.267-1.658.444-2.512.528-.847.086-1.686.228-2.513.427-.318.084-.63.193-.93.327-.591.288-1.12.689-1.558 1.18l1.005-4.472.578-2.689 2.689-.578 3.242 5.277z" />
        <path stroke="#D6AD60" stroke-linecap="round" stroke-linejoin="round" stroke-width="5"
            d="M48.256 19.75l-3.844 17.138-.754 3.292-.553 2.412-2.412.553-3.945.88-2.538.578-2.94.653-11.006 2.488 10.403 2.337 10.026 2.261 2.412.528.553 2.437 2.261 10.051 2.337 10.378 2.488-11.03.653-2.916.553-2.487.905-4.02.528-2.413 2.412-.528 3.191-.729 17.263-3.87-20.429-4.598-1.834-.402-.603-.15-.1-.453-.428-1.96-1.13-5.05" />
        <path stroke="#D6AD60" stroke-linecap="round" stroke-linejoin="round" stroke-width="5"
            d="M43.658 40.18l-.553 2.412-2.412.553-2.262-3.593-2.789-4.423 3.292 2.086zM43.658 55.307l-8.016 5.05 5.05-8.015 2.413.528zM60.87 60.358l-4.422-2.79-3.593-2.286.528-2.412 2.412-.528 3.015 4.75zM60.87 35.13l-5.05 8.015-1.834-.402-.603-.15-.1-.453-.428-1.96z" />
        <path stroke="#D6AD60" stroke-linecap="round" stroke-linejoin="round" stroke-width="5"
            d="M64.389 2.84a47.442 47.442 0 0 1 5.654 2.512c21.93 11.313 31.626 37.472 22.368 60.344-9.259 22.873-34.42 34.923-58.045 27.796-23.624-7.126-37.925-31.08-32.99-55.257C6.31 14.058 28.856-2.375 53.383.327" />
        <circle cx="48.332" cy="10.026" r="2.513" fill="#C39779" fill-rule="nonzero" />
        <circle cx="85.974" cy="47.819" r="2.513" fill="#C39779" fill-rule="nonzero" />
        <circle cx="48.181" cy="85.461" r="2.513" fill="#C39779" fill-rule="nonzero" />
        <circle cx="10.539" cy="47.668" r="2.513" fill="#C39779" fill-rule="nonzero" />
    </g>
</svg>